<?xml version="1.0" encoding="UTF-8"?>
<svg xmlns="http://www.w3.org/2000/svg" version="1.1" viewBox="0 0 24 24">
  <defs>
    <style>
      .cls-1 {
        fill: #f8f9fa;
      }
    </style>
  </defs>
  <!-- Generator: Adobe Illustrator 28.7.1, SVG Export Plug-In . SVG Version: 1.2.0 Build 142)  -->
  <g>
    <g id="Layer_1">
      <path class="cls-1" d="M1,20v-4c0-.6.2-1,.6-1.4.4-.4.9-.6,1.4-.6h3.3c.3,0,.7,0,1,.3s.5.4.7.7c.5.7,1.1,1.2,1.8,1.5s1.5.6,2.3.6,1.6-.2,2.3-.6,1.3-.9,1.8-1.5c.2-.3.5-.5.8-.7s.6-.3.9-.3h3.3c.6,0,1,.2,1.4.6s.6.9.6,1.4v4h-7v-2.3c-.6.4-1.2.7-1.9,1s-1.4.3-2.1.3-1.4-.1-2.1-.3-1.3-.5-1.9-1v2.3H1ZM12,16c-.6,0-1.2-.1-1.8-.4s-1-.7-1.4-1.2c-.3-.4-.6-.7-1.1-1s-.9-.4-1.4-.4c.4-.6,1.1-1.1,2.3-1.5,1.2-.4,2.3-.5,3.4-.5s2.2.2,3.4.5c1.2.4,2,.8,2.3,1.5-.5,0-.9.1-1.4.4s-.8.6-1.1,1c-.4.5-.8.9-1.4,1.2s-1.2.4-1.8.4ZM4,13c-.8,0-1.5-.3-2.1-.9-.6-.6-.9-1.3-.9-2.1s.3-1.6.9-2.1c.6-.6,1.3-.9,2.1-.9s1.6.3,2.1.9.9,1.3.9,2.1-.3,1.5-.9,2.1-1.3.9-2.1.9ZM20,13c-.8,0-1.5-.3-2.1-.9s-.9-1.3-.9-2.1.3-1.6.9-2.1,1.3-.9,2.1-.9,1.6.3,2.1.9.9,1.3.9,2.1-.3,1.5-.9,2.1-1.3.9-2.1.9ZM12,10c-.8,0-1.5-.3-2.1-.9s-.9-1.3-.9-2.1.3-1.6.9-2.1,1.3-.9,2.1-.9,1.6.3,2.1.9.9,1.3.9,2.1-.3,1.5-.9,2.1-1.3.9-2.1.9Z"/>
    </g>
  </g>
</svg>