<?xml version="1.0" encoding="UTF-8"?>
<svg xmlns="http://www.w3.org/2000/svg" viewBox="0 0 418 500">
  <defs>
    <style>
      .cls-1 {
        letter-spacing: -.02em;
      }

      .cls-2 {
        letter-spacing: -.01em;
      }

      .cls-3 {
        letter-spacing: 0em;
      }

      .cls-4 {
        letter-spacing: .03em;
      }

      .cls-5 {
        letter-spacing: 0em;
      }

      .cls-6 {
        font-size: 8px;
      }

      .cls-6, .cls-7, .cls-8, .cls-9 {
        font-family: Inter-SemiBold, Inter;
        font-weight: 600;
      }

      .cls-10 {
        stroke-width: 2px;
      }

      .cls-10, .cls-11, .cls-12 {
        stroke-miterlimit: 10;
      }

      .cls-10, .cls-12 {
        fill: #f8f9fa;
        stroke: #222;
      }

      .cls-13 {
        letter-spacing: -.06em;
      }

      .cls-14 {
        letter-spacing: -.04em;
      }

      .cls-7, .cls-8 {
        font-size: 12px;
      }

      .cls-8 {
        opacity: .7;
      }

      .cls-15 {
        letter-spacing: .01em;
      }

      .cls-16 {
        letter-spacing: -.02em;
      }

      .cls-17 {
        letter-spacing: -.01em;
      }

      .cls-18 {
        letter-spacing: .03em;
      }

      .cls-19 {
        letter-spacing: -.02em;
      }

      .cls-11 {
        fill: none;
        stroke: gray;
        stroke-width: 4px;
      }

      .cls-20 {
        letter-spacing: 0em;
      }

      .cls-21 {
        letter-spacing: 0em;
      }

      .cls-9 {
        font-size: 7px;
      }

      .cls-22 {
        letter-spacing: .02em;
      }

      .cls-23 {
        letter-spacing: 0em;
      }

      .cls-24 {
        letter-spacing: -.02em;
      }

      .cls-25 {
        letter-spacing: 0em;
      }

      .cls-26 {
        letter-spacing: -.06em;
      }

      .cls-27 {
        letter-spacing: 0em;
      }

      .cls-28 {
        letter-spacing: .01em;
      }
    </style>
  </defs>
  <g id="Lines">
    <circle class="cls-11" cx="241.68" cy="387.71" r="8.5"/>
    <path class="cls-11" d="M244.63,396.21l9.35,16.14c2.76,4.76,4.36,13.1,3.56,18.55l-7.37,50.18"/>
    <line class="cls-11" x1="196.68" y1="428.19" x2="257.94" y2="428.19"/>
    <path class="cls-11" d="M196.68,428.19l-26.68-.13c-5.5-.03-10,4.45-10,9.95v43.07"/>
    <path class="cls-11" d="M160,438l-.4-40.5c-.05-5.5,4.4-9.99,9.9-9.97l63.68.18"/>
    <path class="cls-11" d="M160,395l1.25-306.44c.02-5.5,4.54-10,10.04-10h106.52c5.5,0,10-4.5,10-10V31.4"/>
    <path class="cls-11" d="M250.18,387.71l39.94-20.65c4.89-2.53,8.88-9.09,8.88-14.59v-86.29c0-15.15-8.13-29.14-21.29-36.64h0c-6.36-3.63-13.56-5.53-20.88-5.53h-97.33"/>
    <line class="cls-11" x1="144.11" y1="336.78" x2="159.5" y2="337"/>
    <path class="cls-11" d="M185.11,321.71v-5.32c0-2.93-4.5-5.33-10-5.35l-10.11-.02q-5.5-.01,0,0l10.11.02c5.5.01,10-3.87,10-8.62v-8.64"/>
    <line class="cls-11" x1="201.68" y1="428.19" x2="201.68" y2="441.71"/>
    <line class="cls-11" x1="179.68" y1="387.71" x2="179.68" y2="400.71"/>
    <line class="cls-11" x1="196.68" y1="372.19" x2="196.68" y2="387.5"/>
    <path class="cls-11" d="M124.56,186.78h36.11"/>
    <line class="cls-11" x1="149" y1="201" x2="149" y2="187"/>
    <line class="cls-11" x1="240.11" y1="361.78" x2="240.11" y2="379.84"/>
    <line class="cls-11" x1="256.37" y1="25.48" x2="287.82" y2="45.28"/>
    <line class="cls-11" x1="305.44" y1="62.67" x2="287.82" y2="62.67"/>
    <line class="cls-11" x1="208.44" y1="97.67" x2="208.44" y2="78.56"/>
    <path class="cls-11" d="M161.25,88.93l-.88-26.77c-.23-6.99-4.34-13.26-10.65-16.27,0,0-23.73-5.88-23.73-22.88"/>
  </g>
  <g id="Nodes">
    <circle class="cls-10" cx="240.11" cy="361.78" r="9.25"/>
    <circle class="cls-10" cx="144.11" cy="336.78" r="9.25"/>
    <circle class="cls-10" cx="185.39" cy="293.78" r="9.25"/>
    <circle class="cls-10" cx="319.3" cy="254.48" r="9.25"/>
    <circle class="cls-10" cx="305.44" cy="62.67" r="9.25"/>
    <circle class="cls-10" cx="208.44" cy="97.67" r="9.25"/>
    <circle class="cls-10" cx="124.56" cy="186.78" r="9.25"/>
    <circle class="cls-10" cx="256.37" cy="25.48" r="9.25"/>
  </g>
  <g id="Small_Nodes">
    <circle class="cls-12" cx="287.82" cy="31.4" r="6.18"/>
    <circle class="cls-12" cx="196.68" cy="371.71" r="6.18"/>
    <circle class="cls-12" cx="185.39" cy="321.71" r="6.18"/>
    <circle class="cls-12" cx="179.68" cy="400.71" r="6.18"/>
    <circle class="cls-12" cx="201.68" cy="441.71" r="6.18"/>
    <circle class="cls-12" cx="241.68" cy="387.71" r="6.18"/>
    <circle class="cls-12" cx="148.89" cy="200.78" r="6.18"/>
  </g>
  <g id="Text">
    <text class="cls-7" transform="translate(204.88 340.15)"><tspan x="0" y="0">ADMIN Building</tspan></text>
    <text class="cls-7" transform="translate(29.88 352.15)"><tspan x="0" y="0">Elias B</tspan><tspan class="cls-1" x="37.9" y="0">.</tspan><tspan class="cls-3" x="41.11" y="0" xml:space="preserve"> Lopez Hall</tspan></text>
    <text class="cls-7" transform="translate(197.88 289.15)"><tspan x="0" y="0">Lib</tspan><tspan class="cls-2" x="17.48" y="0">r</tspan><tspan x="22.12" y="0">a</tspan><tspan class="cls-22" x="29.02" y="0">r</tspan><tspan x="33.98" y="0">y</tspan></text>
    <text class="cls-7" transform="translate(295.88 90.15)"><tspan class="cls-26" x="0" y="0">T</tspan><tspan class="cls-2" x="7.24" y="0">r</tspan><tspan x="11.87" y="0">aining </tspan><tspan class="cls-5" x="50.14" y="0">F</tspan><tspan x="57.11" y="0">acility</tspan></text>
    <text class="cls-7" transform="translate(297.88 35.15)"><tspan x="0" y="0">Indoor Gym</tspan></text>
    <text class="cls-7" transform="translate(191.88 28.15)"><tspan x="0" y="0">Stadium</tspan></text>
    <text class="cls-7" transform="translate(219.88 111.15)"><tspan x="0" y="0">Open Field</tspan></text>
    <text class="cls-7" transform="translate(12.73 170.15)"><tspan x="0" y="0">College of Science</tspan><tspan x="10.78" y="14.4">&amp; Ma</tspan><tspan class="cls-15" x="39.48" y="14.4">t</tspan><tspan class="cls-3" x="44.18" y="14.4">hematics</tspan></text>
    <text class="cls-7" transform="translate(309.88 282.15)"><tspan x="0" y="0">Cultu</tspan><tspan class="cls-2" x="31.21" y="0">r</tspan><tspan x="35.85" y="0">al Cen</tspan><tspan class="cls-25" x="72.2" y="0">t</tspan><tspan x="76.69" y="0">er</tspan></text>
  </g>
  <g id="Small_Text">
    <text class="cls-6" transform="translate(252.79 405.06)"><tspan x="0" y="0">Oblation Plaza</tspan></text>
    <text class="cls-9" transform="translate(164.91 355.06)"><tspan x="0" y="0">Basek</tspan><tspan class="cls-28" x="20.6" y="0">t</tspan><tspan x="23.34" y="0">ball &amp;</tspan><tspan class="cls-13" x="0" y="8.4">V</tspan><tspan class="cls-21" x="4.66" y="8.4">oll</tspan><tspan class="cls-24" x="12.56" y="8.4">e</tspan><tspan class="cls-21" x="16.6" y="8.4">yball Cou</tspan><tspan class="cls-18" x="48.17" y="8.4">r</tspan><tspan class="cls-21" x="51.15" y="8.4">t</tspan></text>
    <text class="cls-9" transform="translate(170.19 413.06)"><tspan class="cls-14" x="0" y="0">F</tspan><tspan x="3.82" y="0">oo</tspan><tspan class="cls-28" x="12.33" y="0">t</tspan><tspan x="15.07" y="0">ball Field</tspan></text>
    <text class="cls-9" transform="translate(195.12 323.06)"><tspan x="0" y="0">Ou</tspan><tspan class="cls-27" x="9.68" y="0">t</tspan><tspan class="cls-23" x="12.3" y="0">door Gym</tspan></text>
    <text class="cls-9" transform="translate(101.06 213.06)"><tspan x="0" y="0">CSM Ann</tspan><tspan class="cls-17" x="31.43" y="0">e</tspan><tspan x="35.51" y="0">x</tspan></text>
    <text class="cls-9" transform="translate(164.11 454.26)"><tspan x="0" y="0">Kalimudan </tspan><tspan x="0" y="8.4">C</tspan><tspan class="cls-16" x="5.21" y="8.4">ov</tspan><tspan x="13.23" y="8.4">e</tspan><tspan class="cls-19" x="17.38" y="8.4">r</tspan><tspan x="20" y="8.4">ed Cou</tspan><tspan class="cls-4" x="44.01" y="8.4">r</tspan><tspan class="cls-21" x="47" y="8.4">t</tspan></text>
  </g>
  <g id="Layer_19">
    <text class="cls-8" transform="translate(10.33 478.5)"><tspan x="0" y="0">No</tspan><tspan class="cls-20" x="16.18" y="0">t</tspan><tspan x="20.68" y="0">e: Map not </tspan><tspan class="cls-20" x="84.65" y="0">t</tspan><tspan x="89.14" y="0">o Scale</tspan></text>
  </g>
</svg>