<?xml version="1.0" encoding="UTF-8"?>
<svg xmlns="http://www.w3.org/2000/svg" version="1.1" viewBox="0 0 24 24">
  <defs>
    <style>
      .cls-1 {
        fill: #222;
      }
    </style>
  </defs>
  <!-- Generator: Adobe Illustrator 28.7.1, SVG Export Plug-In . SVG Version: 1.2.0 Build 142)  -->
  <g>
    <g id="Layer_1">
      <path class="cls-1" d="M10,19.3v-5.7l1.4-4c0-.2.2-.3.4-.5s.4-.2.6-.2h7.3c.2,0,.4,0,.6.2s.3.3.4.5l1.4,4v5.7c0,.2,0,.3-.2.5s-.3.2-.5.2h-.7c-.2,0-.3,0-.5-.2s-.2-.3-.2-.5v-.9h-8v.9c0,.2,0,.3-.2.5s-.3.2-.5.2h-.7c-.2,0-.3,0-.5-.2s-.2-.3-.2-.5ZM12,12.5h8l-.7-2h-6.6l-.7,2ZM11.5,14v3-3ZM13,16.5c.3,0,.5,0,.7-.3s.3-.4.3-.7,0-.5-.3-.7-.4-.3-.7-.3-.5,0-.7.3-.3.4-.3.7,0,.5.3.7.4.3.7.3ZM19,16.5c.3,0,.5,0,.7-.3s.3-.4.3-.7,0-.5-.3-.7-.4-.3-.7-.3-.5,0-.7.3-.3.4-.3.7,0,.5.3.7.4.3.7.3ZM4,20v-1l1-1c-.8,0-1.5-.3-2.1-.9-.6-.6-.9-1.3-.9-2.1V7c0-1.1.5-1.9,1.5-2.3,1-.5,2.7-.7,5-.7s4.2.2,5.1.7c.9.4,1.4,1.2,1.4,2.4v1h-2v-1H4v6h5v7h-5ZM5,16c.3,0,.5,0,.7-.3s.3-.4.3-.7,0-.5-.3-.7-.4-.3-.7-.3-.5,0-.7.3-.3.4-.3.7,0,.5.3.7.4.3.7.3ZM11.5,17h9v-3h-9v3Z"/>
    </g>
  </g>
</svg>