<?xml version="1.0" encoding="UTF-8"?>
<svg xmlns="http://www.w3.org/2000/svg" version="1.1" viewBox="0 0 24 24">
  <defs>
    <style>
      .cls-1 {
        fill: #222;
      }
    </style>
  </defs>
  <!-- Generator: Adobe Illustrator 28.7.1, SVG Export Plug-In . SVG Version: 1.2.0 Build 142)  -->
  <g>
    <g id="Layer_1">
      <path class="cls-1" d="M6,17h1.5v-1.5h9v1.5h1.5v-4.2c0-.5-.1-.9-.4-1.3-.3-.4-.6-.7-1.1-.9v-1.7c0-.6-.2-1-.6-1.4s-.9-.6-1.4-.6h-5c-.6,0-1,.2-1.4.6s-.6.9-.6,1.4v1.7c-.5.2-.8.5-1.1.9-.3.4-.4.8-.4,1.3v4.2ZM7.5,14v-1.2c0-.2,0-.4.3-.6s.4-.3.6-.3h7.3c.2,0,.4,0,.6.3s.3.4.3.6v1.2H7.5ZM9,10.5v-2h6v2h-6ZM4,22c-.6,0-1-.2-1.4-.6s-.6-.9-.6-1.4V4c0-.6.2-1,.6-1.4s.9-.6,1.4-.6h16c.6,0,1,.2,1.4.6s.6.9.6,1.4v16c0,.6-.2,1-.6,1.4s-.9.6-1.4.6H4ZM4,20h16V4H4v16ZM4,20V4v16Z"/>
    </g>
  </g>
</svg>