<?xml version="1.0" encoding="UTF-8"?>
<svg xmlns="http://www.w3.org/2000/svg" version="1.1" viewBox="0 0 24 24">
  <defs>
    <style>
      .cls-1 {
        fill: #222;
      }
    </style>
  </defs>
  <!-- Generator: Adobe Illustrator 28.7.1, SVG Export Plug-In . SVG Version: 1.2.0 Build 142)  -->
  <g>
    <g id="Layer_1">
      <path class="cls-1" d="M4.1,12L1.1,6.8l6.6-3.8h1.3c.3.8.6,1.5,1,2.1s1.1.9,2.1.9,1.7-.3,2.1-.9.7-1.3,1-2.1h1.3l6.6,3.8-3,5.2-1.9-1v4.8l-1.6,1.4c0,0-.1,0-.2.1s-.2,0-.2.1V7.6l3.1,1.7,1-1.8-3.8-2.2c-.4.8-1,1.5-1.8,2s-1.6.7-2.5.7-1.8-.2-2.5-.7-1.4-1.1-1.8-2l-3.9,2.2,1,1.8,3.1-1.7v5.9c-.4,0-.7,0-1,.2s-.7.2-1,.3v-3l-1.9,1ZM4.7,19.4l-1.3-1.5,2.2-1.9c.4-.3.8-.6,1.3-.8.5-.2,1-.3,1.5-.3s1,0,1.5.3.9.4,1.3.8l2.9,2.5c.2.2.4.3.7.4s.6.1.8.1.6,0,.8-.1.5-.2.7-.4l2.2-1.9,1.3,1.6-2.2,1.9c-.4.3-.8.6-1.3.8-.5.2-1,.3-1.5.3s-1,0-1.5-.3c-.5-.2-.9-.4-1.3-.8l-2.9-2.5c-.2-.2-.4-.3-.7-.4s-.5-.1-.8-.1-.6,0-.8.1-.5.2-.7.4l-2.2,1.9Z"/>
    </g>
  </g>
</svg>